<mxfile host="app.diagrams.net" agent="Mozilla/5.0 (Windows NT 10.0; Win64; x64) AppleWebKit/537.36 (KHTML, like Gecko) Chrome/128.0.0.0 Safari/537.36" version="24.7.12">
  <diagram id="kgpKYQtTHZ0yAKxKKP6v" name="Page-1">
    <mxGraphModel dx="1061" dy="2739" grid="1" gridSize="10" guides="1" tooltips="1" connect="1" arrows="1" fold="1" page="1" pageScale="1" pageWidth="850" pageHeight="1100" math="0" shadow="0">
      <root>
        <mxCell id="0" />
        <mxCell id="1" parent="0" />
        <mxCell id="YIZn3OgmK-Fc1lFr46rT-8" value="&lt;div style=&quot;display: flex; justify-content: center; text-align: center; align-items: baseline; font-size: 0; line-height: 1.25;margin-top: -2px;&quot;&gt;&lt;span&gt;&lt;span style=&quot;font-size:18.5px;font-family: Helvetica;&quot;&gt; &lt;/span&gt;&lt;span style=&quot;font-size:16px;font-weight: bold;font-family: Helvetica;&quot;&gt;Paciente:&lt;/span&gt;&lt;span style=&quot;font-size:16px;font-family: Helvetica;&quot;&gt; Nome, data de nascimento, contato, plano de saúde (se houver).&lt;/span&gt;&lt;span style=&quot;font-size:18.5px;font-family: Helvetica;&quot;&gt; &lt;/span&gt;&lt;/span&gt;&lt;/div&gt;" style="html=1;overflow=block;blockSpacing=1;whiteSpace=wrap;shape=parallelogram;perimeter=parallelogramPerimeter;anchorPointDirection=0;fontSize=13;fontFamily=Helvetica;spacing=3.8;strokeOpacity=0;fillOpacity=100;rounded=1;absoluteArcSize=1;arcSize=12;fillColor=#00c2a8;strokeWidth=0.8;lucidId=QQI_pbLYlIJx;" vertex="1" parent="1">
          <mxGeometry x="372" y="-1230" width="172" height="139" as="geometry" />
        </mxCell>
        <mxCell id="YIZn3OgmK-Fc1lFr46rT-9" value="Cadastrar" style="html=1;overflow=block;blockSpacing=1;whiteSpace=wrap;fontSize=18.5;fontFamily=Helvetica;spacing=3.8;strokeOpacity=0;fillOpacity=100;rounded=1;absoluteArcSize=1;arcSize=12;fillColor=#9391ff;strokeWidth=0.8;lucidId=QQI_IPzIiCOo;" vertex="1" parent="1">
          <mxGeometry x="398" y="-983" width="120" height="90" as="geometry" />
        </mxCell>
        <mxCell id="YIZn3OgmK-Fc1lFr46rT-10" value="Inicio" style="html=1;overflow=block;blockSpacing=1;whiteSpace=wrap;rounded=1;arcSize=50;fontSize=18.5;fontFamily=Helvetica;spacing=3.8;strokeOpacity=0;fillOpacity=100;fillColor=#6db1ff;strokeWidth=0.8;lucidId=QQI_TQkChOIm;" vertex="1" parent="1">
          <mxGeometry x="45" y="-598" width="120" height="60" as="geometry" />
        </mxCell>
        <mxCell id="YIZn3OgmK-Fc1lFr46rT-12" value="" style="html=1;jettySize=18;whiteSpace=wrap;fontSize=13;strokeOpacity=100;strokeWidth=0.8;rounded=1;arcSize=12;edgeStyle=orthogonalEdgeStyle;startArrow=none;endArrow=block;endFill=1;exitX=1;exitY=0.5;exitPerimeter=0;lucidId=M2I_8~3_aaZc;" edge="1" parent="1" source="YIZn3OgmK-Fc1lFr46rT-10" target="YIZn3OgmK-Fc1lFr46rT-57">
          <mxGeometry width="100" height="100" relative="1" as="geometry">
            <Array as="points" />
            <mxPoint x="280" y="-567" as="targetPoint" />
          </mxGeometry>
        </mxCell>
        <mxCell id="YIZn3OgmK-Fc1lFr46rT-13" value="&lt;div style=&quot;display: flex; justify-content: center; text-align: center; align-items: baseline; font-size: 0; line-height: 1.25;margin-top: -2px;&quot;&gt;&lt;span&gt;&lt;span style=&quot;font-size:16px;font-weight: bold;font-family: Helvetica;&quot;&gt;Profissional de Saúde:&lt;/span&gt;&lt;span style=&quot;font-size:16px;font-family: Helvetica;&quot;&gt; Nome, especialidade, CRM, disponibilidade de horários.&lt;/span&gt;&lt;/span&gt;&lt;/div&gt;" style="html=1;overflow=block;blockSpacing=1;whiteSpace=wrap;shape=parallelogram;perimeter=parallelogramPerimeter;anchorPointDirection=0;fontSize=13;fontFamily=Helvetica;spacing=3.8;strokeOpacity=0;fillOpacity=100;rounded=1;absoluteArcSize=1;arcSize=12;fillColor=#00c2a8;strokeWidth=0.8;lucidId=VbJ_eVQJ_TcY;" vertex="1" parent="1">
          <mxGeometry x="608" y="-1005" width="172" height="141" as="geometry" />
        </mxCell>
        <mxCell id="YIZn3OgmK-Fc1lFr46rT-14" value="" style="html=1;jettySize=18;whiteSpace=wrap;fontSize=13.3;fontColor=#333333;fontStyle=1;strokeColor=#3a414a;strokeOpacity=100;strokeWidth=0.8;rounded=1;arcSize=12;edgeStyle=orthogonalEdgeStyle;startArrow=none;endArrow=block;endFill=1;exitX=0.5;exitY=1;lucidId=HfJ_jg~cBg-F;exitDx=0;exitDy=0;" edge="1" parent="1" source="YIZn3OgmK-Fc1lFr46rT-57">
          <mxGeometry width="100" height="100" relative="1" as="geometry">
            <Array as="points" />
            <mxPoint x="348" y="-375" as="targetPoint" />
            <mxPoint x="348.4999999999998" y="-506.49999999999955" as="sourcePoint" />
          </mxGeometry>
        </mxCell>
        <mxCell id="YIZn3OgmK-Fc1lFr46rT-15" value="Yes" style="text;html=1;resizable=0;labelBackgroundColor=default;align=center;verticalAlign=middle;fontStyle=1;fontColor=#333333;fontSize=13.3;" vertex="1" parent="YIZn3OgmK-Fc1lFr46rT-14">
          <mxGeometry relative="1" as="geometry" />
        </mxCell>
        <mxCell id="YIZn3OgmK-Fc1lFr46rT-16" value="Agendamento" style="html=1;overflow=block;blockSpacing=1;whiteSpace=wrap;fontSize=16;fontFamily=Helvetica;spacing=3.8;strokeOpacity=0;fillOpacity=100;rounded=1;absoluteArcSize=1;arcSize=12;fillColor=#9391ff;strokeWidth=0.8;lucidId=WgJ_OmT9v-VH;" vertex="1" parent="1">
          <mxGeometry x="288" y="-375" width="120" height="60" as="geometry" />
        </mxCell>
        <mxCell id="YIZn3OgmK-Fc1lFr46rT-17" value="" style="html=1;jettySize=18;whiteSpace=wrap;fontSize=13;strokeColor=#3a414a;strokeOpacity=100;strokeWidth=0.8;rounded=1;arcSize=12;edgeStyle=orthogonalEdgeStyle;startArrow=none;endArrow=block;endFill=1;exitX=1;exitY=0.5;exitPerimeter=0;entryX=0.062;entryY=0.5;entryPerimeter=0;lucidId=jkJ_B18swH-g;" edge="1" parent="1" source="YIZn3OgmK-Fc1lFr46rT-16" target="YIZn3OgmK-Fc1lFr46rT-18">
          <mxGeometry width="100" height="100" relative="1" as="geometry">
            <Array as="points" />
          </mxGeometry>
        </mxCell>
        <mxCell id="YIZn3OgmK-Fc1lFr46rT-18" value="Paciente escolhe especialidade e médico." style="html=1;overflow=block;blockSpacing=1;whiteSpace=wrap;shape=parallelogram;perimeter=parallelogramPerimeter;anchorPointDirection=0;fontSize=16;fontColor=default;spacing=3.8;strokeOpacity=0;fillOpacity=100;rounded=1;absoluteArcSize=1;arcSize=12;fillColor=#00c2a8;strokeWidth=0.8;lucidId=EkJ_7SGfC_O8;" vertex="1" parent="1">
          <mxGeometry x="465" y="-390" width="195" height="90" as="geometry" />
        </mxCell>
        <mxCell id="YIZn3OgmK-Fc1lFr46rT-19" value="" style="html=1;jettySize=18;whiteSpace=wrap;fontSize=13;strokeColor=#3a414a;strokeOpacity=100;strokeWidth=0.8;rounded=1;arcSize=12;edgeStyle=orthogonalEdgeStyle;startArrow=none;endArrow=block;endFill=1;exitX=1;exitY=0.5;exitPerimeter=0;entryX=0.115;entryY=0.475;entryPerimeter=0;lucidId=FpJ_L1yaipvq;" edge="1" parent="1" source="YIZn3OgmK-Fc1lFr46rT-9" target="YIZn3OgmK-Fc1lFr46rT-13">
          <mxGeometry width="100" height="100" relative="1" as="geometry">
            <Array as="points" />
          </mxGeometry>
        </mxCell>
        <mxCell id="YIZn3OgmK-Fc1lFr46rT-20" value="" style="html=1;jettySize=18;whiteSpace=wrap;fontSize=13;strokeColor=#3a414a;strokeOpacity=100;strokeWidth=0.8;rounded=1;arcSize=12;edgeStyle=orthogonalEdgeStyle;startArrow=none;endArrow=block;endFill=1;exitX=0.5;exitY=0;exitPerimeter=0;entryX=0;entryY=0.5;entryPerimeter=0;lucidId=prJ_A45VfQpZ;" edge="1" parent="1" source="YIZn3OgmK-Fc1lFr46rT-9" target="YIZn3OgmK-Fc1lFr46rT-16">
          <mxGeometry width="100" height="100" relative="1" as="geometry">
            <Array as="points" />
          </mxGeometry>
        </mxCell>
        <mxCell id="YIZn3OgmK-Fc1lFr46rT-21" value="Paciente escolhe especialidade e médico." style="html=1;overflow=block;blockSpacing=1;whiteSpace=wrap;shape=parallelogram;perimeter=parallelogramPerimeter;anchorPointDirection=0;fontSize=16;spacing=3.8;strokeOpacity=0;fillOpacity=100;rounded=1;absoluteArcSize=1;arcSize=12;fillColor=#00c2a8;strokeWidth=0.8;lucidId=OsJ_163GYdNo;" vertex="1" parent="1">
          <mxGeometry x="675" y="-390" width="195" height="90" as="geometry" />
        </mxCell>
        <mxCell id="YIZn3OgmK-Fc1lFr46rT-22" value="" style="html=1;jettySize=18;whiteSpace=wrap;fontSize=13.3;fontColor=#333333;fontStyle=1;strokeColor=#3a414a;strokeOpacity=100;strokeWidth=0.8;rounded=1;arcSize=12;edgeStyle=orthogonalEdgeStyle;startArrow=none;endArrow=block;endFill=1;exitX=0.5;exitY=0;entryX=0;entryY=0.5;entryPerimeter=0;lucidId=3tJ_Wr6hLbdY;exitDx=0;exitDy=0;" edge="1" parent="1" source="YIZn3OgmK-Fc1lFr46rT-57" target="YIZn3OgmK-Fc1lFr46rT-9">
          <mxGeometry width="100" height="100" relative="1" as="geometry">
            <Array as="points" />
            <mxPoint x="348.4999999999998" y="-628.5" as="sourcePoint" />
          </mxGeometry>
        </mxCell>
        <mxCell id="YIZn3OgmK-Fc1lFr46rT-23" value="No" style="text;html=1;resizable=0;labelBackgroundColor=default;align=center;verticalAlign=middle;fontStyle=1;fontColor=#333333;fontSize=13.3;" vertex="1" parent="YIZn3OgmK-Fc1lFr46rT-22">
          <mxGeometry relative="1" as="geometry" />
        </mxCell>
        <mxCell id="YIZn3OgmK-Fc1lFr46rT-24" value="" style="html=1;jettySize=18;whiteSpace=wrap;fontSize=13;strokeColor=#3a414a;strokeOpacity=100;strokeWidth=0.8;rounded=1;arcSize=12;edgeStyle=orthogonalEdgeStyle;startArrow=none;endArrow=block;endFill=1;exitX=0.5;exitY=0;exitPerimeter=0;entryX=0.5;entryY=1;entryPerimeter=0;lucidId=quJ_~4nU6OxI;" edge="1" parent="1" source="YIZn3OgmK-Fc1lFr46rT-9" target="YIZn3OgmK-Fc1lFr46rT-8">
          <mxGeometry width="100" height="100" relative="1" as="geometry">
            <Array as="points" />
          </mxGeometry>
        </mxCell>
        <mxCell id="YIZn3OgmK-Fc1lFr46rT-25" value="" style="html=1;jettySize=18;whiteSpace=wrap;fontSize=13;strokeColor=#3a414a;strokeOpacity=100;strokeWidth=0.8;rounded=1;arcSize=12;edgeStyle=orthogonalEdgeStyle;startArrow=none;endArrow=block;endFill=1;exitX=0.938;exitY=0.5;exitPerimeter=0;entryX=0.062;entryY=0.5;entryPerimeter=0;lucidId=UuJ_Hll9U-qZ;" edge="1" parent="1" source="YIZn3OgmK-Fc1lFr46rT-18" target="YIZn3OgmK-Fc1lFr46rT-21">
          <mxGeometry width="100" height="100" relative="1" as="geometry">
            <Array as="points" />
          </mxGeometry>
        </mxCell>
        <mxCell id="YIZn3OgmK-Fc1lFr46rT-26" value="" style="html=1;jettySize=18;whiteSpace=wrap;fontSize=13;strokeColor=#3a414a;strokeOpacity=100;strokeWidth=0.8;rounded=1;arcSize=12;edgeStyle=orthogonalEdgeStyle;startArrow=none;endArrow=block;endFill=1;exitX=0.938;exitY=0.5;exitPerimeter=0;entryX=0.062;entryY=0.5;entryPerimeter=0;lucidId=0uJ_AKJRlGoW;" edge="1" parent="1" source="YIZn3OgmK-Fc1lFr46rT-21" target="YIZn3OgmK-Fc1lFr46rT-27">
          <mxGeometry width="100" height="100" relative="1" as="geometry">
            <Array as="points" />
          </mxGeometry>
        </mxCell>
        <mxCell id="YIZn3OgmK-Fc1lFr46rT-27" value="Paciente seleciona horário.    " style="html=1;overflow=block;blockSpacing=1;whiteSpace=wrap;shape=parallelogram;perimeter=parallelogramPerimeter;anchorPointDirection=0;fontSize=16;spacing=3.8;strokeOpacity=0;fillOpacity=100;rounded=1;absoluteArcSize=1;arcSize=12;fillColor=#00c2a8;strokeWidth=0.8;lucidId=0uJ_kOH82g5J;" vertex="1" parent="1">
          <mxGeometry x="900" y="-390" width="195" height="90" as="geometry" />
        </mxCell>
        <mxCell id="YIZn3OgmK-Fc1lFr46rT-28" value="Horario está disponivel?" style="html=1;overflow=block;blockSpacing=1;whiteSpace=wrap;rhombus;fontSize=16.7;spacing=3.8;strokeColor=#d916a8;strokeOpacity=100;fillOpacity=0;rounded=1;absoluteArcSize=1;arcSize=12;fillColor=#000000;strokeWidth=1.5;lucidId=DyJ_rzGWwYGw;" vertex="1" parent="1">
          <mxGeometry x="1200" y="-397" width="135" height="105" as="geometry" />
        </mxCell>
        <mxCell id="YIZn3OgmK-Fc1lFr46rT-29" value="" style="html=1;jettySize=18;whiteSpace=wrap;fontSize=13;strokeColor=#3a414a;strokeOpacity=100;strokeWidth=0.8;rounded=1;arcSize=12;edgeStyle=orthogonalEdgeStyle;startArrow=none;endArrow=block;endFill=1;exitX=0.938;exitY=0.5;exitPerimeter=0;entryX=0.016;entryY=0.5;entryPerimeter=0;lucidId=YyJ_zF9gCQRK;" edge="1" parent="1" source="YIZn3OgmK-Fc1lFr46rT-27" target="YIZn3OgmK-Fc1lFr46rT-28">
          <mxGeometry width="100" height="100" relative="1" as="geometry">
            <Array as="points" />
          </mxGeometry>
        </mxCell>
        <mxCell id="YIZn3OgmK-Fc1lFr46rT-30" value="" style="html=1;jettySize=18;whiteSpace=wrap;fontSize=13.3;fontColor=#333333;fontStyle=1;strokeColor=#3a414a;strokeOpacity=100;strokeWidth=0.8;rounded=1;arcSize=12;edgeStyle=orthogonalEdgeStyle;startArrow=none;endArrow=block;endFill=1;exitX=0.5;exitY=0.988;exitPerimeter=0;lucidId=4zJ_9_pGZEbC;entryX=0.5;entryY=0;entryDx=0;entryDy=0;" edge="1" parent="1" source="YIZn3OgmK-Fc1lFr46rT-28" target="YIZn3OgmK-Fc1lFr46rT-32">
          <mxGeometry width="100" height="100" relative="1" as="geometry">
            <Array as="points" />
            <mxPoint x="1268" y="-195" as="targetPoint" />
          </mxGeometry>
        </mxCell>
        <mxCell id="YIZn3OgmK-Fc1lFr46rT-31" value="Yes" style="text;html=1;resizable=0;labelBackgroundColor=default;align=center;verticalAlign=middle;fontStyle=1;fontColor=#333333;fontSize=13.3;" vertex="1" parent="YIZn3OgmK-Fc1lFr46rT-30">
          <mxGeometry relative="1" as="geometry" />
        </mxCell>
        <mxCell id="YIZn3OgmK-Fc1lFr46rT-32" value="Sistema envia notificação por e-mail ou SMS confirmando a consulta." style="html=1;overflow=block;blockSpacing=1;whiteSpace=wrap;shape=parallelogram;perimeter=parallelogramPerimeter;anchorPointDirection=0;fontSize=16;spacing=3.8;strokeOpacity=0;fillOpacity=100;rounded=1;absoluteArcSize=1;arcSize=12;fillColor=#00c2a8;strokeWidth=0.8;lucidId=PAJ_E-d_Suj7;align=center;" vertex="1" parent="1">
          <mxGeometry x="1162.5" y="-190" width="210" height="85" as="geometry" />
        </mxCell>
        <mxCell id="YIZn3OgmK-Fc1lFr46rT-33" value="" style="html=1;jettySize=18;whiteSpace=wrap;fontSize=13.3;fontColor=#333333;fontStyle=1;strokeColor=#3a414a;strokeOpacity=100;strokeWidth=0.8;rounded=1;arcSize=12;edgeStyle=orthogonalEdgeStyle;startArrow=none;endArrow=block;endFill=1;exitX=0.984;exitY=0.5;exitPerimeter=0;lucidId=gGJ_axX_6smn;" edge="1" parent="1" source="YIZn3OgmK-Fc1lFr46rT-28" target="YIZn3OgmK-Fc1lFr46rT-35">
          <mxGeometry width="100" height="100" relative="1" as="geometry">
            <Array as="points" />
          </mxGeometry>
        </mxCell>
        <mxCell id="YIZn3OgmK-Fc1lFr46rT-34" value="No" style="text;html=1;resizable=0;labelBackgroundColor=default;align=center;verticalAlign=middle;fontStyle=1;fontColor=#333333;fontSize=13.3;" vertex="1" parent="YIZn3OgmK-Fc1lFr46rT-33">
          <mxGeometry relative="1" as="geometry" />
        </mxCell>
        <mxCell id="YIZn3OgmK-Fc1lFr46rT-52" style="edgeStyle=orthogonalEdgeStyle;rounded=0;orthogonalLoop=1;jettySize=auto;html=1;" edge="1" parent="1" source="YIZn3OgmK-Fc1lFr46rT-35" target="YIZn3OgmK-Fc1lFr46rT-32">
          <mxGeometry relative="1" as="geometry">
            <mxPoint x="1490" y="-140" as="targetPoint" />
            <Array as="points">
              <mxPoint x="1535" y="-140" />
            </Array>
          </mxGeometry>
        </mxCell>
        <mxCell id="YIZn3OgmK-Fc1lFr46rT-35" value="Sistema solicita outros horarios disponiveis" style="html=1;overflow=block;blockSpacing=1;whiteSpace=wrap;shape=parallelogram;perimeter=parallelogramPerimeter;anchorPointDirection=0;fontSize=16.7;fontColor=default;spacing=3.8;strokeOpacity=0;fillOpacity=100;rounded=1;absoluteArcSize=1;arcSize=12;fillColor=#00c2a8;strokeWidth=0.8;lucidId=jGJ_lGAf3IDa;" vertex="1" parent="1">
          <mxGeometry x="1450" y="-394.5" width="170" height="100" as="geometry" />
        </mxCell>
        <mxCell id="YIZn3OgmK-Fc1lFr46rT-36" value="" style="html=1;jettySize=18;whiteSpace=wrap;fontSize=13;strokeColor=#3a414a;strokeOpacity=100;strokeWidth=0.8;rounded=1;arcSize=12;edgeStyle=orthogonalEdgeStyle;startArrow=none;endArrow=block;endFill=1;exitX=0.5;exitY=1;exitPerimeter=0;entryX=0.5;entryY=0;entryPerimeter=0;lucidId=rJJ_5ob82Y1e;" edge="1" parent="1" source="YIZn3OgmK-Fc1lFr46rT-32" target="YIZn3OgmK-Fc1lFr46rT-37">
          <mxGeometry width="100" height="100" relative="1" as="geometry">
            <Array as="points" />
          </mxGeometry>
        </mxCell>
        <mxCell id="YIZn3OgmK-Fc1lFr46rT-45" style="edgeStyle=orthogonalEdgeStyle;rounded=0;orthogonalLoop=1;jettySize=auto;html=1;" edge="1" parent="1" source="YIZn3OgmK-Fc1lFr46rT-37" target="YIZn3OgmK-Fc1lFr46rT-39">
          <mxGeometry relative="1" as="geometry" />
        </mxCell>
        <mxCell id="YIZn3OgmK-Fc1lFr46rT-37" value="Cancelamento" style="html=1;overflow=block;blockSpacing=1;whiteSpace=wrap;fontSize=16.7;fontColor=default;spacing=9;strokeOpacity=0;fillOpacity=100;rounded=1;absoluteArcSize=1;arcSize=12;fillColor=#9391ff;strokeWidth=0.8;lucidId=uJJ_8ado.Bnw;" vertex="1" parent="1">
          <mxGeometry x="1196" width="143" height="90" as="geometry" />
        </mxCell>
        <mxCell id="YIZn3OgmK-Fc1lFr46rT-44" value="" style="edgeStyle=orthogonalEdgeStyle;rounded=0;orthogonalLoop=1;jettySize=auto;html=1;" edge="1" parent="1" source="YIZn3OgmK-Fc1lFr46rT-39" target="YIZn3OgmK-Fc1lFr46rT-43">
          <mxGeometry relative="1" as="geometry" />
        </mxCell>
        <mxCell id="YIZn3OgmK-Fc1lFr46rT-39" value="Paciente acessa sua conta e solicita o cancelamento." style="html=1;overflow=block;blockSpacing=1;whiteSpace=wrap;shape=parallelogram;perimeter=parallelogramPerimeter;anchorPointDirection=0;fontSize=16;fontColor=default;spacing=3.8;strokeOpacity=0;fillOpacity=100;rounded=1;absoluteArcSize=1;arcSize=12;fillColor=#00c2a8;strokeWidth=0.8;lucidId=hKJ_4CayDnIb;" vertex="1" parent="1">
          <mxGeometry x="1177.5" y="160" width="180" height="108" as="geometry" />
        </mxCell>
        <mxCell id="YIZn3OgmK-Fc1lFr46rT-43" value="Sistema libera o horário e&amp;nbsp; notifica o médico." style="html=1;overflow=block;blockSpacing=1;whiteSpace=wrap;shape=parallelogram;perimeter=parallelogramPerimeter;anchorPointDirection=0;fontSize=16;fontColor=default;spacing=3.8;strokeOpacity=0;fillOpacity=100;rounded=1;absoluteArcSize=1;arcSize=12;fillColor=#00c2a8;strokeWidth=0.8;lucidId=hKJ_4CayDnIb;" vertex="1" parent="1">
          <mxGeometry x="1177.5" y="320" width="180" height="108" as="geometry" />
        </mxCell>
        <mxCell id="YIZn3OgmK-Fc1lFr46rT-55" value="Verificação" style="html=1;overflow=block;blockSpacing=1;whiteSpace=wrap;fontSize=16.7;fontColor=default;spacing=9;strokeOpacity=0;fillOpacity=100;rounded=1;absoluteArcSize=1;arcSize=12;fillColor=#9391ff;strokeWidth=0.8;lucidId=uJJ_8ado.Bnw;" vertex="1" parent="1">
          <mxGeometry x="1192" y="500" width="143" height="90" as="geometry" />
        </mxCell>
        <mxCell id="YIZn3OgmK-Fc1lFr46rT-57" value="Paciente possui uma conta?" style="html=1;overflow=block;blockSpacing=1;whiteSpace=wrap;rhombus;fontSize=16.7;spacing=3.8;strokeColor=#d916a8;strokeOpacity=100;fillOpacity=0;rounded=1;absoluteArcSize=1;arcSize=12;fillColor=#000000;strokeWidth=1.5;lucidId=DyJ_rzGWwYGw;" vertex="1" parent="1">
          <mxGeometry x="268.25" y="-638.25" width="159.5" height="140.5" as="geometry" />
        </mxCell>
      </root>
    </mxGraphModel>
  </diagram>
</mxfile>
